<svg xmlns="http://www.w3.org/2000/svg" viewBox="0 0 141.94 125.73">
  <defs><style> .cls-1 { fill: props.color }</style></defs>
  <title>bus</title>
  <g id="Layer_2" data-name="Layer 2">
    <g id="Layer_1-2" data-name="Layer 1">
      <path class="cls-1" d="M110.49,115.37H107v5.72a4.66,4.66,0,0,0,4.65,4.65h8.58a4.66,4.66,0,0,0,4.65-4.65V107.86A17.57,17.57,0,0,1,110.49,115.37Z"/>
      <path class="cls-1" d="M16.45,106.88v14.2a4.66,4.66,0,0,0,4.65,4.65h8.58a4.66,4.66,0,0,0,4.65-4.65v-5.72H31.48A17.58,17.58,0,0,1,16.45,106.88Z"/><circle class="cls-1" cx="31.66" cy="93.44" r="2.28"/>
      <circle class="cls-1" cx="25" cy="93.44" r="2.28"/>
      <circle class="cls-1" cx="110.31" cy="93.44" r="2.28"/>
      <circle class="cls-1" cx="116.96" cy="93.44" r="2.28"/>
      <path class="cls-1" d="M138.51,31.18h-.17a5.85,5.85,0,0,0-5.79-5.24h-4.49V9a9,9,0,0,0-9-9H22.92a9,9,0,0,0-9,9V25.93H9.4a5.85,5.85,0,0,0-5.8,5.24H3.44A3.45,3.45,0,0,0,0,34.61V52.4a3.45,3.45,0,0,0,3.44,3.44H7.88a3.45,3.45,0,0,0,3.44-3.44V34.61a3.45,3.45,0,0,0-3.44-3.44H7.07a2.26,2.26,0,0,1,2.2-1.76h4.64V93.48A17.6,17.6,0,0,0,31.47,111h79A17.6,17.6,0,0,0,128,93.48V29.42h4.63a2.26,2.26,0,0,1,2.2,1.76h-.81a3.45,3.45,0,0,0-3.44,3.44V52.4a3.45,3.45,0,0,0,3.44,3.44h4.44a3.45,3.45,0,0,0,3.44-3.44V34.61A3.44,3.44,0,0,0,138.51,31.18ZM43.34,6.43H98.63V16H43.34Zm-21.21,16h97.71V76.08H22.13V22.4ZM38.49,97.7a.88.88,0,0,1-.76.41H25a6.77,6.77,0,0,1-6.76-6.76V89.73a.91.91,0,0,1,.91-.91h15.3a.89.89,0,0,1,.83.54l3.26,7.48A.88.88,0,0,1,38.49,97.7Zm85.21-6.35a6.77,6.77,0,0,1-6.76,6.76H104.23a.9.9,0,0,1-.83-1.27l3.26-7.48a.89.89,0,0,1,.83-.54h15.3a.91.91,0,0,1,.91.91v1.63h0Z"/>
    </g>
  </g>
</svg>
