<svg xmlns="http://www.w3.org/2000/svg" viewBox="0 0 137.59 125.95"><defs><style>.cls-1{fill:#fff;}</style></defs><title>taxi</title><g id="Layer_2" data-name="Layer 2"><g id="Layer_1-2" data-name="Layer 1"><path class="cls-1" d="M125.16,51.14,113.84,22.21c-2.09-5.46-6.7-10.15-15.4-10.12H82.53V4.51c0-3-1.67-4.54-4.34-4.51H59.64c-2.7,0-4.34,1.5-4.34,4.51v7.57H39.14c-8.66,0-13.27,4.66-15.4,10.12L12.42,51.14C8,51.67,0,56.88,0,66.71v36.75H11.06v11.74c0,14.4,20.62,14.23,20.59,0V103.46h74.28v11.74c0,14.23,20.67,14.4,20.68,0V103.46h11V66.71C137.59,56.88,129.66,51.67,125.16,51.14ZM21.7,81a9.74,9.74,0,0,1,0-19.48A9.74,9.74,0,0,1,21.7,81ZM68.83,50.46H24.16l8.51-22.38c1-3.18,2.64-5.48,6.38-5.53H98.61c3.7,0,5.3,2.35,6.38,5.53l8.51,22.38ZM116,81a9.74,9.74,0,0,1,0-19.48A9.74,9.74,0,0,1,116,81Z"/></g></g></svg>