<svg xmlns="http://www.w3.org/2000/svg" viewBox="0 0 102.46 161.72">
  <defs><style>.cls-1{fill:#fff;}</style></defs>
  <title>tram</title>
  <g id="Layer_2" data-name="Layer 2">
    <g id="Layer_1-2" data-name="Layer 1">
      <path class="cls-1" d="M95.92,120.71a23.13,23.13,0,0,0,6.53-16.77l-2.22-78A26.72,26.72,0,0,0,73.52,0H28.94A26.72,26.72,0,0,0,2.23,26L0,103.93a23,23,0,0,0,11.81,20.82l-10.11,37h15l3.85-14.08H81.95l3.85,14.08h15l-10.11-37A23.14,23.14,0,0,0,95.92,120.71ZM36.57,11.61a4,4,0,0,1,4-4H62.32a4,4,0,0,1,4,4v.32a4,4,0,0,1-4,4H40.53a4,4,0,0,1-4-4ZM13.85,31.45a8.24,8.24,0,0,1,8.23-7.92H81.53a8.24,8.24,0,0,1,8.23,7.92l1.06,27.12a8.24,8.24,0,0,1-8.23,8.56H21a8.24,8.24,0,0,1-8.23-8.56ZM11.49,103.6a11.58,11.58,0,1,1,11.57,11.58A11.57,11.57,0,0,1,11.49,103.6Zm11.28,35.8L26,127.71H76.5l3.2,11.69ZM79.4,115.17A11.57,11.57,0,1,1,91,103.6,11.58,11.58,0,0,1,79.4,115.17Z"/>
    </g>
  </g>
</svg>
